<?xml version="1.0" encoding="utf-8"?>
<!-- Generator: Adobe Illustrator 15.1.0, SVG Export Plug-In . SVG Version: 6.00 Build 0)  -->
<!DOCTYPE svg PUBLIC "-//W3C//DTD SVG 1.1//EN" "http://www.w3.org/Graphics/SVG/1.1/DTD/svg11.dtd">
<svg version="1.1" id="Calque_1" xmlns="http://www.w3.org/2000/svg" xmlns:xlink="http://www.w3.org/1999/xlink" x="0px" y="0px"
	 width="280px" height="60px" viewBox="0 0 280 60" enable-background="new 0 0 280 60" xml:space="preserve">
<g>
	<path fill="#FFFFFF" d="M2.005,50.607L2,43.072c0,0,36.359-0.014,36.356-0.01c-6.369,4.597-6.934,12.871-6.934,12.871
		C17.958,56.3,14.309,47.454,2.005,50.607L2.005,50.607z"/>
	<path fill="#FFFFFF" d="M27.177,39.491c0,0,2.087-1.084,4.258-1.084c2.307,0,3.479,1.096,3.479,1.096s2.084-1.871,2.084-5.44
		c0-3.84-2.57-7.409-6.96-7.409c-1.181,0-2.341,0.26-2.892,0.469C29.575,31.714,28.823,35.678,27.177,39.491L27.177,39.491z"/>
	<path fill="#FFFFFF" d="M2.631,39.491c0,0,2.088-1.084,4.259-1.084c2.305,0,3.477,1.096,3.477,1.096s2.085-1.871,2.085-5.44
		c0-3.84-2.567-7.409-6.962-7.409c-1.18,0-2.338,0.26-2.889,0.469C5.03,31.714,4.278,35.678,2.631,39.491L2.631,39.491z"/>
	<path fill="#FFFFFF" d="M13.064,39.909c0,0,2.808-1.459,5.731-1.459c3.111,0,4.684,1.475,4.684,1.475s2.811-2.519,2.811-7.327
		c0-5.167-3.461-9.979-9.379-9.979c-1.588,0-3.15,0.354-3.889,0.636C16.296,29.436,15.282,34.777,13.064,39.909L13.064,39.909z"/>
	<path fill="#FFFFFF" d="M13.921,20.958c0,0,2.084-1.082,4.256-1.082c2.308,0,3.477,1.096,3.477,1.096s2.086-1.871,2.086-5.441
		c0-3.838-2.57-7.406-6.961-7.406c-1.183,0-2.343,0.26-2.893,0.47C16.318,13.187,15.566,17.147,13.921,20.958L13.921,20.958z"/>
	<path fill="#FFFFFF" d="M3.8,24.585c0,0,1.707-0.887,3.483-0.887c1.892,0,2.851,0.897,2.851,0.897s1.707-1.531,1.707-4.456
		c0-3.143-2.104-6.067-5.702-6.067c-0.968,0-1.917,0.216-2.366,0.386C5.765,18.218,5.146,21.464,3.8,24.585L3.8,24.585z"/>
	<path fill="#FFFFFF" d="M25.782,24.585c0,0,1.707-0.887,3.486-0.887c1.892,0,2.85,0.897,2.85,0.897s1.709-1.531,1.709-4.456
		c0-3.143-2.105-6.067-5.705-6.067c-0.965,0-1.916,0.216-2.366,0.386C27.747,18.218,27.132,21.464,25.782,24.585L25.782,24.585z"/>
	<path fill="#FFFFFF" d="M14.536,6.472c0.885-1.256,1.402-3.397-0.217-4.805c3.537-1.053,5.648-1.325,9.825-0.389
		c0.468,0.67,0.715,1.575,0.599,2.455c4.544,1.748,7.674,0.345,9.557-0.829c0,2.06-2.219,6.024-6.468,6.024
		c-2.459,0-4.526-1.172-4.526-1.172c0.375-0.535,0.564-1.271,0.361-2.148C20.286,4.538,17.093,5.187,14.536,6.472L14.536,6.472z"/>
</g>
<g enable-background="new    ">
	<path fill="#FFFFFF" d="M61.466,46.514V14.985h7.182v24.65h10.237v6.879H61.466z"/>
</g>
<g enable-background="new    ">
	<path fill="#FFFFFF" d="M110.133,30.666c0,5.318-1.181,9.361-3.542,12.129c-2.362,2.768-5.82,4.151-10.373,4.151
		c-4.489,0-7.93-1.392-10.324-4.173c-2.395-2.781-3.591-6.832-3.591-12.15c0-5.261,1.19-9.278,3.572-12.053
		c2.381-2.774,5.842-4.162,10.383-4.162c4.554,0,8.005,1.376,10.354,4.129C108.959,21.291,110.133,25.333,110.133,30.666z
		 M90.444,30.666c0,6.111,1.925,9.167,5.774,9.167c1.957,0,3.409-0.742,4.354-2.228c0.946-1.483,1.419-3.797,1.419-6.939
		c0-3.156-0.479-5.488-1.438-6.994c-0.959-1.506-2.391-2.259-4.296-2.259C92.382,21.413,90.444,24.497,90.444,30.666z"/>
	<path fill="#FFFFFF" d="M142.545,46.514h-10.139l-10.452-22.269h-0.176c0.248,3.502,0.372,6.176,0.372,8.021v14.248h-6.85V14.905
		h10.099l10.412,21.966h0.118c-0.183-3.186-0.274-5.744-0.274-7.675V14.905h6.89V46.514z"/>
	<path fill="#FFFFFF" d="M160.218,28.007h12.351v17.036c-3.354,1.27-7.04,1.903-11.059,1.903c-4.41,0-7.819-1.413-10.227-4.237
		c-2.407-2.825-3.61-6.854-3.61-12.086c0-5.103,1.317-9.073,3.953-11.913s6.328-4.259,11.078-4.259c1.8,0,3.5,0.188,5.098,0.562
		c1.599,0.375,2.991,0.851,4.179,1.427l-2.446,6.703c-2.062-1.125-4.325-1.687-6.791-1.687c-2.258,0-4.003,0.811-5.236,2.432
		c-1.232,1.622-1.849,3.938-1.849,6.951c0,2.955,0.558,5.208,1.673,6.757s2.724,2.324,4.824,2.324c1.148,0,2.205-0.123,3.171-0.368
		v-4.95h-5.108V28.007z"/>
	<path fill="#FFFFFF" d="M190.867,46.514l-5.852-22.766h-0.176c0.273,3.877,0.41,6.889,0.41,9.038v13.729h-6.85V14.905h10.295
		l5.969,22.441h0.157l5.852-22.441h10.314v31.608h-7.104V32.655c0-0.721,0.01-1.521,0.029-2.4c0.02-0.879,0.107-3.034,0.265-6.464
		H204l-5.773,22.723H190.867z"/>
	<path fill="#FFFFFF" d="M234.709,46.514L233.3,40.59h-9.297l-1.448,5.924h-8.494l9.336-31.738h10.314l9.453,31.738H234.709z
		 M231.694,33.585l-1.232-5.189c-0.287-1.153-0.637-2.645-1.048-4.475c-0.41-1.831-0.682-3.142-0.812-3.935
		c-0.118,0.735-0.35,1.946-0.695,3.632c-0.346,1.686-1.112,5.009-2.3,9.967H231.694z"/>
	<path fill="#FFFFFF" d="M273.5,46.514h-10.138L252.91,24.245h-0.176c0.248,3.502,0.372,6.176,0.372,8.021v14.248h-6.851V14.905
		h10.1l10.412,21.966h0.117c-0.183-3.186-0.273-5.744-0.273-7.675V14.905h6.889V46.514z"/>
</g>
</svg>
